<svg width="480" height="480" viewBox="0 0 480 480" fill="none" xmlns="http://www.w3.org/2000/svg" role="img" aria-label="Commons">
<rect width="480" height="480" fill="#445943"/>
<path d="M122.016 0L122.205 406.748L240.411 322.768L357.984 407V0.0315237L122.016 0ZM241.201 254.33C180.233 254.33 144.341 230.057 144.341 177.412C144.341 124.767 180.233 100.494 241.201 100.494C298.755 100.494 331.073 120.764 335.184 155.881C335.532 158.908 333.129 161.556 330.124 161.556H285.347C283.165 161.556 281.236 160.137 280.54 158.025C277.22 147.843 264.95 136.873 241.138 136.873C209.769 136.873 194.305 151.752 194.305 177.412C194.305 203.073 209.769 217.952 241.138 217.952C265.393 217.952 277.536 207.202 280.54 194.057C281.046 191.787 283.133 190.211 285.442 190.211H330.567C333.54 190.211 335.911 192.827 335.627 195.822C331.864 233.871 298.976 254.299 241.201 254.299V254.33Z" fill="#F3ECE0"/>
</svg>
