<svg width="542" height="845" viewBox="0 0 542 845" fill="none" xmlns="http://www.w3.org/2000/svg" role="img" aria-label="Commons">
<g clip-path="url(#clip0_68_6)">
<path d="M0 0L0.43575 844.419L271.908 651.061L541.927 845V0.072582L0 0ZM273.723 493.485C133.703 493.485 51.2732 437.597 51.2732 316.385C51.2732 195.173 133.703 139.285 273.723 139.285C405.901 139.285 480.124 185.955 489.565 266.812C490.364 273.779 484.844 279.876 477.945 279.876H375.108C370.097 279.876 365.667 276.61 364.069 271.747C356.443 248.303 328.265 223.045 273.578 223.045C201.534 223.045 166.021 257.303 166.021 316.385C166.021 375.467 201.534 409.726 273.578 409.726C329.282 409.726 357.17 384.975 364.069 354.708C365.231 349.482 370.024 345.853 375.326 345.853H478.962C485.788 345.853 491.235 351.878 490.582 358.773C481.939 446.379 406.409 493.413 273.723 493.413V493.485Z" fill="#445943"/>
</g>
<defs>
<clipPath id="clip0_68_6">
<rect width="542" height="845" fill="white"/>
</clipPath>
</defs>
</svg>
