<svg width="481" height="472" viewBox="0 0 481 472" fill="none" xmlns="http://www.w3.org/2000/svg">
<g clip-path="url(#clip0_67_2)">
<path d="M479.742 211.849C475.574 169.999 460.083 131.137 436.493 98.4907L410.073 130.115C396.312 146.556 378.776 158.749 359.118 166.301C370.677 186.597 376.653 210.119 376.653 234.348C376.653 258.577 370.992 282.964 359.669 303.496C378.069 311.205 394.66 323.084 407.714 338.739L436.572 373.509C468.812 328.748 485.796 272.265 479.742 211.849Z" fill="#CFBFFF"/>
<path d="M389.314 414.967L362.107 382.241L359.354 378.937C342.684 358.877 315.634 351.876 290.708 359.585C276.003 364.148 258.861 366.744 238.967 366.744C237.551 366.744 236.293 366.587 234.957 366.587C146.887 364.699 104.189 302.788 104.189 234.348C104.189 165.908 149.954 105.177 234.957 101.795C237.394 101.716 239.753 101.48 242.191 101.48C261.456 101.48 278.284 104.155 292.909 108.796C317.836 116.663 344.965 109.819 361.713 89.7587L389.157 57.0333C408.107 34.3773 392.145 0 362.736 0H235.114C227.408 0 219.623 0.314667 211.838 1.10133C101.437 12.1933 12.267 101.48 1.17971 211.849C-12.8957 352.505 97.3483 471.449 234.957 472L362.657 471.843C391.987 471.843 407.95 437.623 389.235 415.045L389.314 414.967Z" fill="#9F90CC"/>
</g>
<defs>
<clipPath id="clip0_67_2">
<rect width="481" height="472" fill="white"/>
</clipPath>
</defs>
</svg>
